<?xml version="1.0" encoding="iso-8859-1"?>
<!-- Generator: Adobe Illustrator 16.0.0, SVG Export Plug-In . SVG Version: 6.00 Build 0)  -->
<!DOCTYPE svg PUBLIC "-//W3C//DTD SVG 1.1//EN" "http://www.w3.org/Graphics/SVG/1.1/DTD/svg11.dtd">
<svg version="1.1" id="Capa_1" xmlns="http://www.w3.org/2000/svg" xmlns:xlink="http://www.w3.org/1999/xlink" x="0px" y="0px"
	 width="36.334px" height="36.333px" viewBox="0 0 36.334 36.333" style="enable-background:new 0 0 36.334 36.333;"
	 xml:space="preserve">
<g>
	<path d="M11,23.824v11.001H0v-7.668h8.833V25.99H0v-2.166H11z M12.667,16.074v2.167H21.5v1.167h-8.833v15.417h11V16.074H12.667z
		 M25.334,20.825v2.166h8.833v1.167h-8.833v10.667h11v-14H25.334z M22.695,14.76l-1.812-1.584h-5.436l-1.812,1.584 M23.984,5.279
		c0,0.057-0.008,1.416-0.664,2.789c-0.547,1.145-1.641,2.48-3.795,2.79v1.9h-2.717v-1.9c-2.155-0.31-3.249-1.646-3.795-2.79
		c-0.656-1.373-0.664-2.732-0.664-2.789c0-0.276,0.224-0.5,0.5-0.5h1.076c-0.278-0.995-0.438-2.101-0.438-3.27h9.361
		c0,1.169-0.16,2.274-0.438,3.27h1.075C23.762,4.779,23.984,5.003,23.984,5.279z M16.808,8.952
		c-1.058-0.533-1.956-1.671-2.551-3.172h-0.873c0.127,1.087,0.723,3.576,3.424,4.058V8.952z M18.112,8.57
		c-1.665-0.788-2.92-3.294-3.092-6.349h-0.755C14.39,5.731,16.063,8.521,18.112,8.57z M22.945,5.779h-0.868
		c-0.597,1.501-1.493,2.639-2.552,3.172v0.886c1.328-0.231,2.303-0.963,2.894-2.2C22.754,6.936,22.893,6.233,22.945,5.779z"/>
</g>
<g>
</g>
<g>
</g>
<g>
</g>
<g>
</g>
<g>
</g>
<g>
</g>
<g>
</g>
<g>
</g>
<g>
</g>
<g>
</g>
<g>
</g>
<g>
</g>
<g>
</g>
<g>
</g>
<g>
</g>
</svg>
