<?xml version="1.0" standalone="no"?>
<!DOCTYPE svg PUBLIC "-//W3C//DTD SVG 20010904//EN"
 "http://www.w3.org/TR/2001/REC-SVG-20010904/DTD/svg10.dtd">
<svg version="1.0" xmlns="http://www.w3.org/2000/svg"
 width="700.000000pt" height="700.000000pt" viewBox="0 0 700.000000 700.000000"
 preserveAspectRatio="xMidYMid meet">
<metadata>
Created by potrace 1.11, written by Peter Selinger 2001-2013
</metadata>
<g transform="translate(0.000000,700.000000) scale(0.100000,-0.100000)"
fill="#000000" stroke="none">
<path d="M2604 6593 c4 -65 9 -143 12 -173 5 -52 46 -268 60 -317 6 -23 5 -23
-98 -23 -178 0 -205 -23 -194 -166 12 -156 66 -354 134 -489 127 -254 348
-430 624 -497 l96 -23 0 -160 c1 -88 1 -170 1 -182 l1 -22 260 0 260 0 1 42
c0 23 1 105 1 183 l0 140 96 22 c395 90 663 408 747 887 3 17 8 65 11 107 5
63 3 82 -12 107 -24 41 -59 51 -180 51 -57 0 -104 3 -104 8 0 4 5 24 11 46 6
21 13 48 15 60 15 72 23 118 29 171 4 33 9 63 11 66 2 3 6 67 10 142 l6 137
-902 0 -903 0 7 -117z m291 -43 c1 -8 5 -49 9 -90 3 -41 8 -86 11 -100 3 -14
8 -40 11 -59 62 -371 229 -704 437 -869 36 -29 69 -52 73 -52 5 0 18 -7 29
-16 19 -14 18 -15 -15 -10 -309 39 -556 371 -666 894 -3 13 -7 43 -10 65 -3
23 -7 53 -10 67 -2 14 -7 62 -10 108 l-7 83 73 -3 c56 -2 74 -7 75 -18z m-134
-695 c25 -64 94 -193 142 -265 82 -120 158 -199 266 -270 l68 -45 0 -83 c1
-95 2 -95 -100 -61 -207 68 -345 186 -449 384 -47 90 -116 329 -104 360 3 8
33 12 85 11 80 0 80 0 92 -31z m1652 -5 c-5 -84 -63 -267 -116 -365 -105 -194
-292 -331 -509 -372 l-27 -5 0 85 c0 84 0 85 29 99 51 25 162 118 215 180 28
32 55 64 61 71 12 14 63 92 79 122 32 58 84 164 94 191 l12 30 82 0 82 -1 -2
-35z"/>
<path d="M3014 4462 c-41 -3 -84 -36 -290 -222 -23 -20 -54 -46 -69 -58 -15
-12 -24 -22 -19 -23 5 -1 397 -2 872 -3 l862 -1 -32 30 c-18 17 -69 62 -113
100 -44 39 -82 72 -85 75 -3 3 -30 27 -62 53 l-56 48 -484 2 c-265 1 -501 1
-524 -1z"/>
<path d="M2449 3899 c-6 -3 -8 -92 -7 -209 l3 -204 848 0 c809 0 847 -1 848
-18 0 -10 0 -38 0 -63 0 -25 0 -67 0 -95 l-1 -50 -850 0 -850 0 0 -1485 0
-1485 1060 0 1060 0 0 1805 c0 993 -3 1805 -7 1806 -40 4 -2097 3 -2104 -2z"/>
<path d="M4880 2779 l0 -209 850 0 c802 0 850 -1 851 -17 3 -53 0 -193 -4
-200 -3 -5 -386 -8 -851 -8 l-846 0 0 -1027 0 -1028 1060 0 1060 0 0 1349 0
1349 -1060 1 -1060 0 0 -210z"/>
<path d="M0 2201 l0 -208 823 -1 c452 0 836 -1 852 -1 l30 -1 -3 -107 c-1 -59
-4 -108 -6 -110 -2 -2 -384 -4 -850 -4 l-846 0 0 -739 0 -740 1060 0 1060 0 0
1060 0 1060 -1060 0 -1060 0 0 -209z"/>
</g>
</svg>
